<mxfile host="Electron" modified="2023-06-13T17:12:13.229Z" agent="Mozilla/5.0 (Windows NT 10.0; Win64; x64) AppleWebKit/537.36 (KHTML, like Gecko) draw.io/21.3.7 Chrome/112.0.5615.204 Electron/24.5.0 Safari/537.36" etag="gR0UJfhZh3MpuVu9RiLP" version="21.3.7" type="device">
  <diagram id="3-4mBnCU_PGa3ZGsn-QA" name="Page-1">
    <mxGraphModel dx="792" dy="621" grid="1" gridSize="10" guides="1" tooltips="1" connect="1" arrows="1" fold="1" page="1" pageScale="1" pageWidth="850" pageHeight="1100" math="0" shadow="0">
      <root>
        <mxCell id="0" />
        <mxCell id="1" parent="0" />
        <mxCell id="eP8uatdOpaxjFMAJJVIA-1" value="&lt;font style=&quot;font-size: 18px;&quot;&gt;Musicians&lt;/font&gt;" style="rounded=0;whiteSpace=wrap;html=1;labelBackgroundColor=none;fillColor=#FAE5C7;strokeColor=#0F8B8D;fontColor=#143642;" parent="1" vertex="1">
          <mxGeometry x="190" y="290" width="120" height="50" as="geometry" />
        </mxCell>
        <mxCell id="eP8uatdOpaxjFMAJJVIA-2" value="id" style="ellipse;whiteSpace=wrap;html=1;labelBackgroundColor=none;fillColor=#FAE5C7;strokeColor=#0F8B8D;fontColor=#143642;" parent="1" vertex="1">
          <mxGeometry x="30" y="310" width="70" height="40" as="geometry" />
        </mxCell>
        <mxCell id="eP8uatdOpaxjFMAJJVIA-3" value="address" style="ellipse;whiteSpace=wrap;html=1;labelBackgroundColor=none;fillColor=#FAE5C7;strokeColor=#0F8B8D;fontColor=#143642;" parent="1" vertex="1">
          <mxGeometry x="160" y="220" width="60" height="40" as="geometry" />
        </mxCell>
        <mxCell id="eP8uatdOpaxjFMAJJVIA-4" value="name" style="ellipse;whiteSpace=wrap;html=1;labelBackgroundColor=none;fillColor=#FAE5C7;strokeColor=#0F8B8D;fontColor=#143642;" parent="1" vertex="1">
          <mxGeometry x="51" y="235" width="70" height="40" as="geometry" />
        </mxCell>
        <mxCell id="eP8uatdOpaxjFMAJJVIA-5" value="street" style="ellipse;whiteSpace=wrap;html=1;labelBackgroundColor=none;fillColor=#FAE5C7;strokeColor=#0F8B8D;fontColor=#143642;" parent="1" vertex="1">
          <mxGeometry x="90" y="170" width="60" height="40" as="geometry" />
        </mxCell>
        <mxCell id="eP8uatdOpaxjFMAJJVIA-6" value="city" style="ellipse;whiteSpace=wrap;html=1;labelBackgroundColor=none;fillColor=#FAE5C7;strokeColor=#0F8B8D;fontColor=#143642;" parent="1" vertex="1">
          <mxGeometry x="180" y="160" width="60" height="40" as="geometry" />
        </mxCell>
        <mxCell id="eP8uatdOpaxjFMAJJVIA-7" value="phoneNumber" style="ellipse;whiteSpace=wrap;html=1;labelBackgroundColor=none;fillColor=#FAE5C7;strokeColor=#0F8B8D;fontColor=#143642;" parent="1" vertex="1">
          <mxGeometry x="250" y="210" width="90" height="35" as="geometry" />
        </mxCell>
        <mxCell id="eP8uatdOpaxjFMAJJVIA-10" value="&lt;font style=&quot;font-size: 18px;&quot;&gt;Instruments&lt;/font&gt;" style="rounded=0;whiteSpace=wrap;html=1;labelBackgroundColor=none;fillColor=#FAE5C7;strokeColor=#0F8B8D;fontColor=#143642;" parent="1" vertex="1">
          <mxGeometry x="630" y="290" width="120" height="50" as="geometry" />
        </mxCell>
        <mxCell id="eP8uatdOpaxjFMAJJVIA-11" value="Name" style="ellipse;whiteSpace=wrap;html=1;labelBackgroundColor=none;fillColor=#FAE5C7;strokeColor=#0F8B8D;fontColor=#143642;" parent="1" vertex="1">
          <mxGeometry x="580" y="230" width="80" height="40" as="geometry" />
        </mxCell>
        <mxCell id="eP8uatdOpaxjFMAJJVIA-12" value="" style="endArrow=none;html=1;rounded=0;labelBackgroundColor=none;strokeColor=#000000;fontColor=default;" parent="1" edge="1">
          <mxGeometry width="50" height="50" relative="1" as="geometry">
            <mxPoint x="595" y="257" as="sourcePoint" />
            <mxPoint x="645" y="257" as="targetPoint" />
          </mxGeometry>
        </mxCell>
        <mxCell id="eP8uatdOpaxjFMAJJVIA-13" value="musical-Key" style="ellipse;whiteSpace=wrap;html=1;labelBackgroundColor=none;fillColor=#FAE5C7;strokeColor=#0F8B8D;fontColor=#143642;" parent="1" vertex="1">
          <mxGeometry x="710" y="230" width="110" height="30" as="geometry" />
        </mxCell>
        <mxCell id="eP8uatdOpaxjFMAJJVIA-14" value="&lt;font style=&quot;font-size: 18px;&quot;&gt;Albums&lt;/font&gt;" style="rounded=0;whiteSpace=wrap;html=1;labelBackgroundColor=none;fillColor=#FAE5C7;strokeColor=#0F8B8D;fontColor=#143642;" parent="1" vertex="1">
          <mxGeometry x="180" y="550" width="120" height="50" as="geometry" />
        </mxCell>
        <mxCell id="eP8uatdOpaxjFMAJJVIA-15" value="title" style="ellipse;whiteSpace=wrap;html=1;labelBackgroundColor=none;fillColor=#FAE5C7;strokeColor=#0F8B8D;fontColor=#143642;" parent="1" vertex="1">
          <mxGeometry x="60" y="590" width="80" height="40" as="geometry" />
        </mxCell>
        <mxCell id="eP8uatdOpaxjFMAJJVIA-16" value="copyright-date" style="ellipse;whiteSpace=wrap;html=1;labelBackgroundColor=none;fillColor=#FAE5C7;strokeColor=#0F8B8D;fontColor=#143642;" parent="1" vertex="1">
          <mxGeometry x="121" y="640" width="100" height="40" as="geometry" />
        </mxCell>
        <mxCell id="eP8uatdOpaxjFMAJJVIA-17" value="id" style="ellipse;whiteSpace=wrap;html=1;labelBackgroundColor=none;fillColor=#FAE5C7;strokeColor=#0F8B8D;fontColor=#143642;" parent="1" vertex="1">
          <mxGeometry x="255" y="640" width="80" height="40" as="geometry" />
        </mxCell>
        <mxCell id="eP8uatdOpaxjFMAJJVIA-18" value="&lt;span style=&quot;font-size: 18px;&quot;&gt;Songs&lt;/span&gt;" style="rounded=0;whiteSpace=wrap;html=1;labelBackgroundColor=none;fillColor=#FAE5C7;strokeColor=#0F8B8D;fontColor=#143642;" parent="1" vertex="1">
          <mxGeometry x="620" y="540" width="120" height="50" as="geometry" />
        </mxCell>
        <mxCell id="eP8uatdOpaxjFMAJJVIA-19" value="title" style="ellipse;whiteSpace=wrap;html=1;labelBackgroundColor=none;fillColor=#FAE5C7;strokeColor=#0F8B8D;fontColor=#143642;" parent="1" vertex="1">
          <mxGeometry x="570" y="640" width="80" height="40" as="geometry" />
        </mxCell>
        <mxCell id="eP8uatdOpaxjFMAJJVIA-20" value="auther" style="ellipse;whiteSpace=wrap;html=1;labelBackgroundColor=none;fillColor=#FAE5C7;strokeColor=#0F8B8D;fontColor=#143642;" parent="1" vertex="1">
          <mxGeometry x="710" y="640" width="80" height="40" as="geometry" />
        </mxCell>
        <mxCell id="eP8uatdOpaxjFMAJJVIA-21" value="" style="endArrow=none;html=1;rounded=0;labelBackgroundColor=none;strokeColor=#A8201A;fontColor=default;" parent="1" edge="1">
          <mxGeometry width="50" height="50" relative="1" as="geometry">
            <mxPoint x="585" y="670" as="sourcePoint" />
            <mxPoint x="635" y="670" as="targetPoint" />
          </mxGeometry>
        </mxCell>
        <mxCell id="eP8uatdOpaxjFMAJJVIA-22" value="" style="endArrow=none;html=1;rounded=0;exitX=0.132;exitY=1.022;exitDx=0;exitDy=0;exitPerimeter=0;entryX=0.5;entryY=0;entryDx=0;entryDy=0;labelBackgroundColor=none;strokeColor=#A8201A;fontColor=default;" parent="1" source="eP8uatdOpaxjFMAJJVIA-18" target="eP8uatdOpaxjFMAJJVIA-19" edge="1">
          <mxGeometry width="50" height="50" relative="1" as="geometry">
            <mxPoint x="470" y="460" as="sourcePoint" />
            <mxPoint x="520" y="410" as="targetPoint" />
          </mxGeometry>
        </mxCell>
        <mxCell id="eP8uatdOpaxjFMAJJVIA-23" value="" style="endArrow=none;html=1;rounded=0;entryX=0.396;entryY=0.022;entryDx=0;entryDy=0;entryPerimeter=0;labelBackgroundColor=none;strokeColor=#A8201A;fontColor=default;" parent="1" target="eP8uatdOpaxjFMAJJVIA-20" edge="1">
          <mxGeometry width="50" height="50" relative="1" as="geometry">
            <mxPoint x="710" y="590" as="sourcePoint" />
            <mxPoint x="740" y="630" as="targetPoint" />
          </mxGeometry>
        </mxCell>
        <mxCell id="eP8uatdOpaxjFMAJJVIA-24" value="" style="endArrow=none;html=1;rounded=0;exitX=0.75;exitY=1;exitDx=0;exitDy=0;entryX=0.5;entryY=0;entryDx=0;entryDy=0;labelBackgroundColor=none;strokeColor=#A8201A;fontColor=default;" parent="1" source="eP8uatdOpaxjFMAJJVIA-14" target="eP8uatdOpaxjFMAJJVIA-17" edge="1">
          <mxGeometry width="50" height="50" relative="1" as="geometry">
            <mxPoint x="713" y="602" as="sourcePoint" />
            <mxPoint x="750" y="640" as="targetPoint" />
          </mxGeometry>
        </mxCell>
        <mxCell id="eP8uatdOpaxjFMAJJVIA-25" value="" style="endArrow=none;html=1;rounded=0;exitX=0.25;exitY=1;exitDx=0;exitDy=0;labelBackgroundColor=none;strokeColor=#A8201A;fontColor=default;" parent="1" source="eP8uatdOpaxjFMAJJVIA-14" target="eP8uatdOpaxjFMAJJVIA-16" edge="1">
          <mxGeometry width="50" height="50" relative="1" as="geometry">
            <mxPoint x="280" y="610" as="sourcePoint" />
            <mxPoint x="305" y="650" as="targetPoint" />
          </mxGeometry>
        </mxCell>
        <mxCell id="eP8uatdOpaxjFMAJJVIA-26" value="" style="endArrow=none;html=1;rounded=0;exitX=0;exitY=0.75;exitDx=0;exitDy=0;entryX=0.954;entryY=0.339;entryDx=0;entryDy=0;entryPerimeter=0;labelBackgroundColor=none;strokeColor=#A8201A;fontColor=default;" parent="1" source="eP8uatdOpaxjFMAJJVIA-14" target="eP8uatdOpaxjFMAJJVIA-15" edge="1">
          <mxGeometry width="50" height="50" relative="1" as="geometry">
            <mxPoint x="220" y="610" as="sourcePoint" />
            <mxPoint x="194" y="651" as="targetPoint" />
          </mxGeometry>
        </mxCell>
        <mxCell id="eP8uatdOpaxjFMAJJVIA-27" value="" style="endArrow=none;html=1;rounded=0;labelBackgroundColor=none;strokeColor=#A8201A;fontColor=default;" parent="1" edge="1">
          <mxGeometry width="50" height="50" relative="1" as="geometry">
            <mxPoint x="270" y="670" as="sourcePoint" />
            <mxPoint x="320" y="670" as="targetPoint" />
          </mxGeometry>
        </mxCell>
        <mxCell id="eP8uatdOpaxjFMAJJVIA-28" value="" style="endArrow=none;html=1;rounded=0;entryX=1;entryY=0.5;entryDx=0;entryDy=0;exitX=0;exitY=0.75;exitDx=0;exitDy=0;labelBackgroundColor=none;strokeColor=#A8201A;fontColor=default;" parent="1" source="eP8uatdOpaxjFMAJJVIA-1" target="eP8uatdOpaxjFMAJJVIA-2" edge="1">
          <mxGeometry width="50" height="50" relative="1" as="geometry">
            <mxPoint x="470" y="460" as="sourcePoint" />
            <mxPoint x="520" y="410" as="targetPoint" />
          </mxGeometry>
        </mxCell>
        <mxCell id="eP8uatdOpaxjFMAJJVIA-29" value="" style="endArrow=none;html=1;rounded=0;entryX=1;entryY=1;entryDx=0;entryDy=0;exitX=0;exitY=0.5;exitDx=0;exitDy=0;labelBackgroundColor=none;strokeColor=#A8201A;fontColor=default;" parent="1" source="eP8uatdOpaxjFMAJJVIA-1" target="eP8uatdOpaxjFMAJJVIA-4" edge="1">
          <mxGeometry width="50" height="50" relative="1" as="geometry">
            <mxPoint x="200" y="338" as="sourcePoint" />
            <mxPoint x="110" y="340" as="targetPoint" />
          </mxGeometry>
        </mxCell>
        <mxCell id="eP8uatdOpaxjFMAJJVIA-30" value="" style="endArrow=none;html=1;rounded=0;exitX=0.079;exitY=-0.022;exitDx=0;exitDy=0;exitPerimeter=0;labelBackgroundColor=none;strokeColor=#A8201A;fontColor=default;" parent="1" source="eP8uatdOpaxjFMAJJVIA-1" target="eP8uatdOpaxjFMAJJVIA-3" edge="1">
          <mxGeometry width="50" height="50" relative="1" as="geometry">
            <mxPoint x="200" y="325" as="sourcePoint" />
            <mxPoint x="121" y="279" as="targetPoint" />
          </mxGeometry>
        </mxCell>
        <mxCell id="eP8uatdOpaxjFMAJJVIA-31" value="" style="endArrow=none;html=1;rounded=0;exitX=0.75;exitY=0;exitDx=0;exitDy=0;entryX=0.5;entryY=1;entryDx=0;entryDy=0;labelBackgroundColor=none;strokeColor=#A8201A;fontColor=default;" parent="1" source="eP8uatdOpaxjFMAJJVIA-1" target="eP8uatdOpaxjFMAJJVIA-7" edge="1">
          <mxGeometry width="50" height="50" relative="1" as="geometry">
            <mxPoint x="209" y="299" as="sourcePoint" />
            <mxPoint x="204" y="270" as="targetPoint" />
          </mxGeometry>
        </mxCell>
        <mxCell id="eP8uatdOpaxjFMAJJVIA-32" value="" style="endArrow=none;html=1;rounded=0;exitX=0.672;exitY=0.1;exitDx=0;exitDy=0;exitPerimeter=0;entryX=0.5;entryY=1;entryDx=0;entryDy=0;labelBackgroundColor=none;strokeColor=#A8201A;fontColor=default;" parent="1" source="eP8uatdOpaxjFMAJJVIA-3" target="eP8uatdOpaxjFMAJJVIA-6" edge="1">
          <mxGeometry width="50" height="50" relative="1" as="geometry">
            <mxPoint x="274" y="297" as="sourcePoint" />
            <mxPoint x="295" y="256" as="targetPoint" />
          </mxGeometry>
        </mxCell>
        <mxCell id="eP8uatdOpaxjFMAJJVIA-33" value="" style="endArrow=none;html=1;rounded=0;exitX=0;exitY=0;exitDx=0;exitDy=0;entryX=1;entryY=1;entryDx=0;entryDy=0;labelBackgroundColor=none;strokeColor=#A8201A;fontColor=default;" parent="1" source="eP8uatdOpaxjFMAJJVIA-3" target="eP8uatdOpaxjFMAJJVIA-5" edge="1">
          <mxGeometry width="50" height="50" relative="1" as="geometry">
            <mxPoint x="210" y="234" as="sourcePoint" />
            <mxPoint x="220" y="210" as="targetPoint" />
          </mxGeometry>
        </mxCell>
        <mxCell id="eP8uatdOpaxjFMAJJVIA-34" value="" style="endArrow=none;html=1;rounded=0;exitX=0.182;exitY=-0.022;exitDx=0;exitDy=0;entryX=0.665;entryY=0.961;entryDx=0;entryDy=0;entryPerimeter=0;exitPerimeter=0;labelBackgroundColor=none;strokeColor=#A8201A;fontColor=default;" parent="1" source="eP8uatdOpaxjFMAJJVIA-10" target="eP8uatdOpaxjFMAJJVIA-11" edge="1">
          <mxGeometry width="50" height="50" relative="1" as="geometry">
            <mxPoint x="290" y="300" as="sourcePoint" />
            <mxPoint x="305" y="255" as="targetPoint" />
          </mxGeometry>
        </mxCell>
        <mxCell id="eP8uatdOpaxjFMAJJVIA-35" value="" style="endArrow=none;html=1;rounded=0;entryX=0.401;entryY=1.074;entryDx=0;entryDy=0;entryPerimeter=0;exitX=0.871;exitY=0.049;exitDx=0;exitDy=0;exitPerimeter=0;labelBackgroundColor=none;strokeColor=#A8201A;fontColor=default;" parent="1" source="eP8uatdOpaxjFMAJJVIA-10" target="eP8uatdOpaxjFMAJJVIA-13" edge="1">
          <mxGeometry width="50" height="50" relative="1" as="geometry">
            <mxPoint x="730" y="287" as="sourcePoint" />
            <mxPoint x="643" y="278" as="targetPoint" />
          </mxGeometry>
        </mxCell>
        <mxCell id="eP8uatdOpaxjFMAJJVIA-36" value="Play" style="rhombus;whiteSpace=wrap;html=1;labelBackgroundColor=none;fillColor=#FAE5C7;strokeColor=#0F8B8D;fontColor=#143642;" parent="1" vertex="1">
          <mxGeometry x="430" y="280" width="80" height="60" as="geometry" />
        </mxCell>
        <mxCell id="eP8uatdOpaxjFMAJJVIA-37" value="" style="endArrow=none;html=1;rounded=0;exitX=1;exitY=0.5;exitDx=0;exitDy=0;entryX=0;entryY=0.5;entryDx=0;entryDy=0;labelBackgroundColor=none;strokeColor=#A8201A;fontColor=default;" parent="1" source="eP8uatdOpaxjFMAJJVIA-1" target="eP8uatdOpaxjFMAJJVIA-36" edge="1">
          <mxGeometry width="50" height="50" relative="1" as="geometry">
            <mxPoint x="470" y="460" as="sourcePoint" />
            <mxPoint x="520" y="410" as="targetPoint" />
          </mxGeometry>
        </mxCell>
        <mxCell id="eP8uatdOpaxjFMAJJVIA-38" value="" style="endArrow=none;html=1;rounded=0;exitX=1;exitY=0.5;exitDx=0;exitDy=0;entryX=0;entryY=0.5;entryDx=0;entryDy=0;labelBackgroundColor=none;strokeColor=#A8201A;fontColor=default;" parent="1" source="eP8uatdOpaxjFMAJJVIA-36" target="eP8uatdOpaxjFMAJJVIA-10" edge="1">
          <mxGeometry width="50" height="50" relative="1" as="geometry">
            <mxPoint x="320" y="325" as="sourcePoint" />
            <mxPoint x="440" y="320" as="targetPoint" />
          </mxGeometry>
        </mxCell>
        <mxCell id="eP8uatdOpaxjFMAJJVIA-39" value="m" style="text;html=1;align=center;verticalAlign=middle;resizable=0;points=[];autosize=1;strokeColor=none;fillColor=none;labelBackgroundColor=none;fontColor=#143642;" parent="1" vertex="1">
          <mxGeometry x="365" y="288" width="30" height="30" as="geometry" />
        </mxCell>
        <mxCell id="eP8uatdOpaxjFMAJJVIA-40" value="m" style="text;html=1;align=center;verticalAlign=middle;resizable=0;points=[];autosize=1;strokeColor=none;fillColor=none;labelBackgroundColor=none;fontColor=#143642;" parent="1" vertex="1">
          <mxGeometry x="560" y="288" width="30" height="30" as="geometry" />
        </mxCell>
        <mxCell id="eP8uatdOpaxjFMAJJVIA-41" value="Perform" style="rhombus;whiteSpace=wrap;html=1;direction=west;rotation=30;labelBackgroundColor=none;fillColor=#FAE5C7;strokeColor=#0F8B8D;fontColor=#143642;" parent="1" vertex="1">
          <mxGeometry x="430" y="410" width="80" height="60" as="geometry" />
        </mxCell>
        <mxCell id="eP8uatdOpaxjFMAJJVIA-42" value="" style="endArrow=none;html=1;rounded=0;entryX=1;entryY=1;entryDx=0;entryDy=0;exitX=1;exitY=0.5;exitDx=0;exitDy=0;labelBackgroundColor=none;strokeColor=#A8201A;fontColor=default;" parent="1" source="eP8uatdOpaxjFMAJJVIA-41" target="eP8uatdOpaxjFMAJJVIA-1" edge="1">
          <mxGeometry width="50" height="50" relative="1" as="geometry">
            <mxPoint x="470" y="460" as="sourcePoint" />
            <mxPoint x="520" y="410" as="targetPoint" />
          </mxGeometry>
        </mxCell>
        <mxCell id="eP8uatdOpaxjFMAJJVIA-43" value="" style="endArrow=none;html=1;rounded=0;entryX=0;entryY=0;entryDx=0;entryDy=0;exitX=0;exitY=0.5;exitDx=0;exitDy=0;labelBackgroundColor=none;strokeColor=#A8201A;fontColor=default;" parent="1" source="eP8uatdOpaxjFMAJJVIA-41" target="eP8uatdOpaxjFMAJJVIA-18" edge="1">
          <mxGeometry width="50" height="50" relative="1" as="geometry">
            <mxPoint x="470" y="460" as="sourcePoint" />
            <mxPoint x="520" y="410" as="targetPoint" />
          </mxGeometry>
        </mxCell>
        <mxCell id="eP8uatdOpaxjFMAJJVIA-44" value="m" style="text;html=1;align=center;verticalAlign=middle;resizable=0;points=[];autosize=1;strokeColor=none;fillColor=none;labelBackgroundColor=none;fontColor=#143642;" parent="1" vertex="1">
          <mxGeometry x="385" y="368" width="30" height="30" as="geometry" />
        </mxCell>
        <mxCell id="eP8uatdOpaxjFMAJJVIA-45" value="m" style="text;html=1;align=center;verticalAlign=middle;resizable=0;points=[];autosize=1;strokeColor=none;fillColor=none;labelBackgroundColor=none;fontColor=#143642;" parent="1" vertex="1">
          <mxGeometry x="560" y="470" width="30" height="30" as="geometry" />
        </mxCell>
        <mxCell id="eP8uatdOpaxjFMAJJVIA-46" value="Has" style="rhombus;whiteSpace=wrap;html=1;direction=west;rotation=0;labelBackgroundColor=none;fillColor=#FAE5C7;strokeColor=#0F8B8D;fontColor=#143642;" parent="1" vertex="1">
          <mxGeometry x="420" y="545" width="80" height="60" as="geometry" />
        </mxCell>
        <mxCell id="eP8uatdOpaxjFMAJJVIA-47" value="" style="endArrow=none;html=1;rounded=0;exitX=1;exitY=0.5;exitDx=0;exitDy=0;labelBackgroundColor=none;strokeColor=#A8201A;fontColor=default;" parent="1" source="eP8uatdOpaxjFMAJJVIA-14" target="eP8uatdOpaxjFMAJJVIA-46" edge="1">
          <mxGeometry width="50" height="50" relative="1" as="geometry">
            <mxPoint x="470" y="460" as="sourcePoint" />
            <mxPoint x="520" y="410" as="targetPoint" />
          </mxGeometry>
        </mxCell>
        <mxCell id="eP8uatdOpaxjFMAJJVIA-48" value="" style="endArrow=none;html=1;rounded=0;exitX=0;exitY=0.5;exitDx=0;exitDy=0;entryX=0;entryY=0.75;entryDx=0;entryDy=0;labelBackgroundColor=none;strokeColor=#A8201A;fontColor=default;" parent="1" source="eP8uatdOpaxjFMAJJVIA-46" target="eP8uatdOpaxjFMAJJVIA-18" edge="1">
          <mxGeometry width="50" height="50" relative="1" as="geometry">
            <mxPoint x="310" y="585" as="sourcePoint" />
            <mxPoint x="430" y="585" as="targetPoint" />
          </mxGeometry>
        </mxCell>
        <mxCell id="eP8uatdOpaxjFMAJJVIA-49" value="1" style="text;html=1;align=center;verticalAlign=middle;resizable=0;points=[];autosize=1;strokeColor=none;fillColor=none;labelBackgroundColor=none;fontColor=#143642;" parent="1" vertex="1">
          <mxGeometry x="355" y="538" width="30" height="30" as="geometry" />
        </mxCell>
        <mxCell id="eP8uatdOpaxjFMAJJVIA-50" value="m" style="text;html=1;align=center;verticalAlign=middle;resizable=0;points=[];autosize=1;strokeColor=none;fillColor=none;labelBackgroundColor=none;fontColor=#143642;" parent="1" vertex="1">
          <mxGeometry x="555" y="548" width="30" height="30" as="geometry" />
        </mxCell>
        <mxCell id="eP8uatdOpaxjFMAJJVIA-51" value="Produce" style="rhombus;whiteSpace=wrap;html=1;labelBackgroundColor=none;fillColor=#FAE5C7;strokeColor=#0F8B8D;fontColor=#143642;" parent="1" vertex="1">
          <mxGeometry x="205" y="430" width="75" height="60" as="geometry" />
        </mxCell>
        <mxCell id="eP8uatdOpaxjFMAJJVIA-52" value="" style="endArrow=none;html=1;rounded=0;entryX=0.5;entryY=1;entryDx=0;entryDy=0;labelBackgroundColor=none;strokeColor=#A8201A;fontColor=default;" parent="1" source="eP8uatdOpaxjFMAJJVIA-51" target="eP8uatdOpaxjFMAJJVIA-1" edge="1">
          <mxGeometry width="50" height="50" relative="1" as="geometry">
            <mxPoint x="470" y="460" as="sourcePoint" />
            <mxPoint x="520" y="410" as="targetPoint" />
          </mxGeometry>
        </mxCell>
        <mxCell id="eP8uatdOpaxjFMAJJVIA-53" value="" style="endArrow=none;html=1;rounded=0;entryX=0.5;entryY=1;entryDx=0;entryDy=0;exitX=0.5;exitY=0;exitDx=0;exitDy=0;labelBackgroundColor=none;strokeColor=#A8201A;fontColor=default;" parent="1" source="eP8uatdOpaxjFMAJJVIA-14" target="eP8uatdOpaxjFMAJJVIA-51" edge="1">
          <mxGeometry width="50" height="50" relative="1" as="geometry">
            <mxPoint x="254" y="441" as="sourcePoint" />
            <mxPoint x="260" y="350" as="targetPoint" />
          </mxGeometry>
        </mxCell>
        <mxCell id="eP8uatdOpaxjFMAJJVIA-54" value="1" style="text;html=1;align=center;verticalAlign=middle;resizable=0;points=[];autosize=1;strokeColor=none;fillColor=none;labelBackgroundColor=none;fontColor=#143642;" parent="1" vertex="1">
          <mxGeometry x="215" y="368" width="30" height="30" as="geometry" />
        </mxCell>
        <mxCell id="eP8uatdOpaxjFMAJJVIA-55" value="m" style="text;html=1;align=center;verticalAlign=middle;resizable=0;points=[];autosize=1;strokeColor=none;fillColor=none;labelBackgroundColor=none;fontColor=#143642;" parent="1" vertex="1">
          <mxGeometry x="205" y="508" width="30" height="30" as="geometry" />
        </mxCell>
        <mxCell id="eP8uatdOpaxjFMAJJVIA-56" value="Used_in" style="rhombus;whiteSpace=wrap;html=1;labelBackgroundColor=none;fillColor=#FAE5C7;strokeColor=#0F8B8D;fontColor=#143642;" parent="1" vertex="1">
          <mxGeometry x="660" y="410" width="80" height="60" as="geometry" />
        </mxCell>
        <mxCell id="eP8uatdOpaxjFMAJJVIA-57" value="" style="endArrow=none;html=1;rounded=0;labelBackgroundColor=none;strokeColor=#A8201A;fontColor=default;" parent="1" source="eP8uatdOpaxjFMAJJVIA-56" target="eP8uatdOpaxjFMAJJVIA-10" edge="1">
          <mxGeometry width="50" height="50" relative="1" as="geometry">
            <mxPoint x="470" y="460" as="sourcePoint" />
            <mxPoint x="520" y="410" as="targetPoint" />
          </mxGeometry>
        </mxCell>
        <mxCell id="eP8uatdOpaxjFMAJJVIA-58" value="" style="endArrow=none;html=1;rounded=0;exitX=0.592;exitY=-0.027;exitDx=0;exitDy=0;exitPerimeter=0;entryX=0.5;entryY=1;entryDx=0;entryDy=0;labelBackgroundColor=none;strokeColor=#A8201A;fontColor=default;" parent="1" source="eP8uatdOpaxjFMAJJVIA-18" target="eP8uatdOpaxjFMAJJVIA-56" edge="1">
          <mxGeometry width="50" height="50" relative="1" as="geometry">
            <mxPoint x="708" y="422" as="sourcePoint" />
            <mxPoint x="700" y="480" as="targetPoint" />
          </mxGeometry>
        </mxCell>
        <mxCell id="eP8uatdOpaxjFMAJJVIA-59" value="m" style="text;html=1;align=center;verticalAlign=middle;resizable=0;points=[];autosize=1;strokeColor=none;fillColor=none;labelBackgroundColor=none;fontColor=#143642;" parent="1" vertex="1">
          <mxGeometry x="665" y="368" width="30" height="30" as="geometry" />
        </mxCell>
        <mxCell id="eP8uatdOpaxjFMAJJVIA-60" value="m" style="text;html=1;align=center;verticalAlign=middle;resizable=0;points=[];autosize=1;strokeColor=none;fillColor=none;labelBackgroundColor=none;fontColor=#143642;" parent="1" vertex="1">
          <mxGeometry x="665" y="488" width="30" height="30" as="geometry" />
        </mxCell>
        <mxCell id="jttigTemJpmRWXIMR9DF-1" value="" style="endArrow=none;html=1;rounded=0;" edge="1" parent="1">
          <mxGeometry width="50" height="50" relative="1" as="geometry">
            <mxPoint x="45" y="340" as="sourcePoint" />
            <mxPoint x="85" y="340" as="targetPoint" />
          </mxGeometry>
        </mxCell>
      </root>
    </mxGraphModel>
  </diagram>
</mxfile>
